<?xml version="1.0" encoding="iso-8859-1"?>
<!-- Generator: Adobe Illustrator 16.0.0, SVG Export Plug-In . SVG Version: 6.00 Build 0)  -->
<!DOCTYPE svg PUBLIC "-//W3C//DTD SVG 1.1//EN" "http://www.w3.org/Graphics/SVG/1.1/DTD/svg11.dtd">
<svg version="1.1" xmlns="http://www.w3.org/2000/svg" xmlns:xlink="http://www.w3.org/1999/xlink" x="0px" y="0px" width="512px"
	 height="512px" viewBox="0 0 512 512" style="enable-background:new 0 0 512 512;" xml:space="preserve">
<g id="D533_x2C__Avatar_x2C__body_x2C__human_x2C__sync_x2C__update">
	<path style="fill:#40B3E2;" d="M166.04,486H76.02V366H26V236c0-32.95,26.72-59.67,59.69-59.67H246.4
		c32.97,0,59.69,26.72,59.69,59.67v130h-50.02v120H166.04z"/>
	<path style="fill:#FFD8A8;" d="M166.04,26c33.15,0,60.02,26.86,60.02,60s-26.87,60-60.02,60c-33.14,0-60.01-26.86-60.01-60
		S132.9,26,166.04,26z"/>
	<path d="M256.07,496H76.02c-5.523,0-10-4.478-10-10V376H26c-5.523,0-10-4.478-10-10V236c0-38.416,31.263-69.67,69.69-69.67H246.4
		c38.427,0,69.69,31.254,69.69,69.67v130c0,5.522-4.478,10-10,10h-40.021v110C266.069,491.522,261.593,496,256.07,496z M86.02,476
		h160.05V366c0-5.522,4.477-10,10-10h40.02V236c0-27.388-22.291-49.67-49.69-49.67H85.69C58.291,186.33,36,208.612,36,236v120h40.02
		c5.523,0,10,4.478,10,10V476z"/>
	<path d="M166.04,156c-38.604,0-70.01-31.402-70.01-70s31.406-70,70.01-70c38.609,0,70.02,31.402,70.02,70S204.649,156,166.04,156z
		 M166.04,36c-27.576,0-50.01,22.43-50.01,50s22.435,50,50.01,50c27.581,0,50.02-22.43,50.02-50S193.621,36,166.04,36z"/>
	<path d="M166.04,496c-5.523,0-10-4.478-10-10V376c0-5.522,4.477-10,10-10s10,4.478,10,10v110
		C176.04,491.522,171.563,496,166.04,496z"/>
	<path d="M346.04,189.34c-5.522,0-10-4.477-10-10c0-49.626,40.364-90,89.979-90c5.522,0,10,4.477,10,10s-4.478,10-10,10
		c-38.587,0-69.979,31.402-69.979,70C356.04,184.863,351.563,189.34,346.04,189.34z"/>
	<path d="M419.933,140.723c-1.484,0-2.991-0.332-4.413-1.033c-4.954-2.441-6.99-8.437-4.549-13.391l13.732-27.857l-28.922-24.857
		c-4.188-3.6-4.665-9.914-1.065-14.102c3.6-4.189,9.914-4.666,14.103-1.066l34.8,29.91c3.46,2.974,4.468,7.913,2.451,12.005
		l-17.159,34.81C427.169,138.673,423.621,140.722,419.933,140.723z"/>
	<path d="M406.03,266c-5.522,0-10-4.478-10-10c0-5.523,4.478-10,10-10c38.581,0,69.97-31.402,69.97-70c0-5.523,4.478-10,10-10
		s10,4.477,10,10C496,225.626,455.64,266,406.03,266z"/>
	<path d="M429.745,299.34c-2.308,0-4.626-0.794-6.514-2.416l-34.8-29.91c-3.459-2.974-4.468-7.911-2.452-12.003l17.149-34.81
		c2.44-4.955,8.435-6.994,13.39-4.551c4.955,2.44,6.992,8.436,4.552,13.39l-13.725,27.858l28.923,24.858
		c4.188,3.601,4.665,9.914,1.065,14.103C435.356,298.159,432.559,299.34,429.745,299.34z"/>
</g>
<g id="Layer_1">
</g>
</svg>
