<?xml version="1.0" encoding="UTF-8" standalone="no"?> <svg width="64" height="64" viewBox="0 0 64 64" fill="none" xmlns="http://www.w3.org/2000/svg">
<path d="M61 3H30V29H61V3Z" fill="#ADE8F4"/>
<path d="M61 24V29H30V3H39V5C39 10.0391 41.0018 14.8718 44.565 18.435C48.1281 21.9982 52.9609 24 58 24H61Z" fill="#48CAE4"/>
<path d="M40 14.46V25H36V19.38L40 14.46Z" fill="#E53935"/>
<path d="M44 12.5V25H40V14.46L42 12L44 12.5Z" fill="#EF5350"/>
<path d="M48 13.5V25H44V12.5L48 13.5Z" fill="#EF5350"/>
<path d="M52 12V25H48V13.5L50 14L52 12Z" fill="#EF5350"/>
<path d="M38 16.92V25H36V19.38L38 16.92Z" fill="#C62828"/>
<path d="M42 12V25H40V14.46L42 12Z" fill="#E53935"/>
<path d="M46 13V25H44V12.5L46 13Z" fill="#E53935"/>
<path d="M50 14V25H48V13.5L50 14Z" fill="#E53935"/>
<path d="M44 17.83V25H40V14.46L40.92 13.32C41.7188 14.9669 42.7567 16.4866 44 17.83Z" fill="#E53935"/>
<path d="M48 21.15V25H44V17.83C45.1705 19.1193 46.5171 20.237 48 21.15V21.15Z" fill="#E53935"/>
<path d="M52 23.02V25H48V21.15C49.2506 21.9368 50.5943 22.5649 52 23.02Z" fill="#E53935"/>
<path d="M42 15.24V25H40V14.46L40.92 13.32C41.2385 13.9825 41.5993 14.6238 42 15.24V15.24Z" fill="#C62828"/>
<path d="M46 19.72V25H44V17.83C44.6146 18.5128 45.2835 19.1449 46 19.72V19.72Z" fill="#C62828"/>
<path d="M50 22.23V25H48V21.15C48.6436 21.5511 49.3116 21.9118 50 22.23V22.23Z" fill="#C62828"/>
<path d="M24 15C19.4913 15 15.1673 16.7911 11.9792 19.9792C8.79105 23.1673 6.99998 27.4913 6.99998 32V34L2.99998 41L6.99998 44C6.99998 47.1826 8.26427 50.2348 10.5147 52.4853C12.7651 54.7357 15.8174 56 19 56H19.593L19 61H41L39 40C40.3815 37.4097 41.0686 34.5058 40.9946 31.5711C40.9205 28.6364 40.0877 25.7709 38.5774 23.2536C37.067 20.7363 34.9305 18.653 32.3759 17.2066C29.8213 15.7602 26.9356 15 24 15V15Z" fill="#F9DBAF"/>
<path d="M20.982 20C17.806 20.454 15.155 22.545 14.982 25.682C14.9153 27.1273 15.3674 28.5488 16.2568 29.6899C17.1462 30.8311 18.4142 31.6167 19.832 31.905C20.032 31.943 20.227 31.971 20.417 31.989C22.0928 32.2303 23.6339 33.0428 24.78 34.289C25.3541 34.8572 26.0374 35.303 26.7887 35.5997C27.54 35.8964 28.3436 36.0376 29.151 36.015C32.856 35.915 35.395 32.379 34.914 28.704C34.105 22.513 27.544 19.063 20.982 20Z" fill="#FCEA42"/>
<path d="M34.916 28.708C34.105 22.513 27.544 19.063 20.982 20C17.806 20.454 15.155 22.545 14.982 25.682C14.9153 27.1273 15.3674 28.5488 16.2568 29.6899C17.1462 30.8311 18.4142 31.6167 19.832 31.905C20.032 31.943 20.227 31.971 20.417 31.989C22.0928 32.2303 23.6339 33.0428 24.78 34.289C25.3541 34.8572 26.0374 35.303 26.7887 35.5997C27.54 35.8963 28.3436 36.0376 29.151 36.015C32.858 35.922 35.4 32.383 34.916 28.708ZM31.522 32C31.4 32.0113 31.277 32.0187 31.153 32.022C30.2966 32.0459 29.4451 31.8855 28.6561 31.5517C27.8671 31.2178 27.1591 30.7183 26.58 30.087C25.4971 28.9017 24.0161 28.156 22.419 27.992C22.2257 27.974 22.0307 27.946 21.834 27.908C20.7315 27.692 19.7136 27.1657 18.9 26.391C18.6359 26.135 18.4479 25.8108 18.3569 25.4543C18.2659 25.0979 18.2755 24.7233 18.3846 24.3719C18.4936 24.0206 18.698 23.7065 18.9748 23.4643C19.2517 23.2221 19.5903 23.0614 19.953 23H19.982C25.616 22.2 31.238 24.631 33.229 29.257C33.3468 29.549 33.3941 29.8647 33.3668 30.1783C33.3396 30.492 33.2387 30.7948 33.0724 31.0622C32.906 31.3295 32.6789 31.5538 32.4095 31.7167C32.1401 31.8797 31.836 31.9768 31.522 32Z" fill="#FDC741"/>
<path d="M52 44C51.1205 43.9974 50.2649 44.2856 49.5662 44.8198C48.8675 45.3539 48.365 46.104 48.1368 46.9534C47.9086 47.8027 47.9676 48.7037 48.3046 49.516C48.6416 50.3284 49.2376 51.0065 50 51.445V53H54V51.445C54.7624 51.0065 55.3584 50.3284 55.6954 49.516C56.0324 48.7037 56.0913 47.8027 55.8632 46.9534C55.635 46.104 55.1325 45.3539 54.4338 44.8198C53.7351 44.2856 52.8794 43.9974 52 44Z" fill="#FCEA42"/>
<path d="M50 55C50 55.5304 50.2107 56.0391 50.5858 56.4142C50.9608 56.7893 51.4696 57 52 57C52.5304 57 53.0391 56.7893 53.4142 56.4142C53.7893 56.0391 54 55.5304 54 55V53H50V55Z" fill="#ADE8F4"/>
<path d="M55.64 49.64C55.2954 50.3995 54.722 51.0324 54 51.45V53H50V51.45C49.3626 51.0841 48.8389 50.5489 48.4868 49.9038C48.1348 49.2586 47.9682 48.5286 48.0055 47.7946C48.0427 47.0606 48.2824 46.3512 48.698 45.745C49.1136 45.1388 49.6888 44.6594 50.36 44.36C50.1233 44.8743 50.0005 45.4338 50 46C50 47.0609 50.4214 48.0783 51.1716 48.8284C51.9217 49.5786 52.9391 50 54 50C54.5662 49.9995 55.1256 49.8767 55.64 49.64V49.64Z" fill="#FDC741"/>
<path d="M54 53H50V55C50.0013 55.4411 50.1485 55.8694 50.4185 56.2182C50.6885 56.567 51.0663 56.8168 51.493 56.9286C51.9197 57.0404 52.3714 57.008 52.7778 56.8364C53.1842 56.6649 53.5225 56.3638 53.74 55.98C53.2597 55.916 52.8188 55.6801 52.4989 55.3161C52.179 54.9521 52.0018 54.4846 52 54H54V53Z" fill="#48CAE4"/>
<path d="M8.99998 15C12.3137 15 15 12.3137 15 9C15 5.68629 12.3137 3 8.99998 3C5.68628 3 2.99998 5.68629 2.99998 9C2.99998 12.3137 5.68628 15 8.99998 15Z" fill="#ADE8F4"/>
<path d="M15 9H8.99998V3C10.5913 3 12.1174 3.63214 13.2426 4.75736C14.3678 5.88258 15 7.4087 15 9Z" fill="#FF7373"/>
<path d="M14.76 10.67C14.4991 11.5766 14.028 12.4088 13.3852 13.0992C12.7423 13.7897 11.9457 14.3188 11.06 14.6436C10.1743 14.9684 9.22451 15.0798 8.2877 14.9688C7.35088 14.8577 6.45346 14.5273 5.66827 14.0044C4.88308 13.4815 4.23226 12.7808 3.76863 11.9592C3.30501 11.1376 3.04164 10.2183 2.99992 9.27584C2.9582 8.33339 3.13929 7.39438 3.52851 6.53503C3.91772 5.67569 4.50408 4.92023 5.23999 4.32999C5.07851 4.87187 4.99764 5.43456 4.99999 5.99999C4.99999 7.59129 5.63213 9.11741 6.75735 10.2426C7.88256 11.3678 9.40869 12 11 12C12.3697 12.0066 13.699 11.5363 14.76 10.67V10.67Z" fill="#48CAE4"/>
<path d="M19 61L19.59 56H19C15.8174 56 12.7651 54.7357 10.5147 52.4853C8.26427 50.2349 6.99998 47.1826 6.99998 44L2.99998 41L6.99998 34V32C6.99704 29.1427 7.71597 26.331 9.09007 23.8258C10.4642 21.3206 12.4489 19.2032 14.86 17.67C12 20.78 12 25.22 12 30.45V32L9.62998 36.14C9.17995 36.9288 9.03323 37.8547 9.21734 38.744C9.40146 39.6332 9.90376 40.4248 10.63 40.97C11.0381 41.2837 11.3787 41.6766 11.6313 42.125C11.8839 42.5735 12.0433 43.0684 12.1 43.58C12.4542 46.2262 13.6796 48.6791 15.5827 50.5514C17.4859 52.4238 19.9584 53.609 22.61 53.92C22.9896 53.9587 23.3415 54.1364 23.598 54.4188C23.8546 54.7012 23.9978 55.0685 24 55.45C23.9993 55.6537 24.039 55.8556 24.1166 56.044C24.1943 56.2323 24.3084 56.4034 24.4525 56.5475C24.5966 56.6916 24.7677 56.8057 24.956 56.8834C25.1444 56.961 25.3462 57.0007 25.55 57H40.62L41 61H19Z" fill="#EDB88E"/>
<path d="M61 2H42C41.7348 2 41.4804 2.10536 41.2929 2.29289C41.1054 2.48043 41 2.73478 41 3C41 3.26522 41.1054 3.51957 41.2929 3.70711C41.4804 3.89464 41.7348 4 42 4H60V28H44.72C44.4548 28 44.2004 28.1054 44.0129 28.2929C43.8254 28.4804 43.72 28.7348 43.72 29C43.72 29.2652 43.8254 29.5196 44.0129 29.7071C44.2004 29.8946 44.4548 30 44.72 30H61C61.2652 30 61.5196 29.8946 61.7071 29.7071C61.8946 29.5196 62 29.2652 62 29V3C62 2.73478 61.8946 2.48043 61.7071 2.29289C61.5196 2.10536 61.2652 2 61 2V2Z" fill="#023E8A"/>
<path d="M55 52V51.979C55.8395 51.3494 56.4597 50.4715 56.7726 49.4698C57.0855 48.4682 57.0753 47.3934 56.7434 46.3979C56.4116 45.4023 55.7749 44.5364 54.9235 43.9228C54.0722 43.3092 53.0494 42.979 52 42.979C50.9506 42.979 49.9278 43.3092 49.0765 43.9228C48.2251 44.5364 47.5884 45.4023 47.2566 46.3979C46.9247 47.3934 46.9145 48.4682 47.2274 49.4698C47.5403 50.4715 48.1605 51.3494 49 51.979V52C48.7348 52 48.4804 52.1054 48.2929 52.2929C48.1054 52.4804 48 52.7348 48 53C48 53.2652 48.1054 53.5196 48.2929 53.7071C48.4804 53.8946 48.7348 54 49 54V55C49 55.7957 49.3161 56.5587 49.8787 57.1213C50.4413 57.6839 51.2044 58 52 58C52.7956 58 53.5587 57.6839 54.1213 57.1213C54.6839 56.5587 55 55.7957 55 55V54C55.2652 54 55.5196 53.8946 55.7071 53.7071C55.8946 53.5196 56 53.2652 56 53C56 52.7348 55.8946 52.4804 55.7071 52.2929C55.5196 52.1054 55.2652 52 55 52ZM50.5 50.581C50.0442 50.3217 49.6652 49.9463 49.4018 49.4929C49.1383 49.0395 48.9996 48.5244 49 48C49 47.2044 49.3161 46.4413 49.8787 45.8787C50.4413 45.3161 51.2044 45 52 45C52.7956 45 53.5587 45.3161 54.1213 45.8787C54.6839 46.4413 55 47.2044 55 48C55.0004 48.5244 54.8617 49.0395 54.5982 49.4929C54.3348 49.9463 53.9558 50.3217 53.5 50.581C53.3483 50.6686 53.2222 50.7945 53.1345 50.9462C53.0467 51.0978 53.0004 51.2698 53 51.445V52H51V51.445C50.9996 51.2698 50.9533 51.0978 50.8655 50.9462C50.7778 50.7945 50.6517 50.6686 50.5 50.581ZM53 55C53 55.2652 52.8946 55.5196 52.7071 55.7071C52.5196 55.8946 52.2652 56 52 56C51.7348 56 51.4804 55.8946 51.2929 55.7071C51.1054 55.5196 51 55.2652 51 55V54H53V55Z" fill="#023E8A"/>
<path d="M60 49C60.5523 49 61 48.5523 61 48C61 47.4477 60.5523 47 60 47C59.4477 47 59 47.4477 59 48C59 48.5523 59.4477 49 60 49Z" fill="#023E8A"/>
<path d="M44 49C44.5523 49 45 48.5523 45 48C45 47.4477 44.5523 47 44 47C43.4477 47 43 47.4477 43 48C43 48.5523 43.4477 49 44 49Z" fill="#023E8A"/>
<path d="M52 41C52.5523 41 53 40.5523 53 40C53 39.4477 52.5523 39 52 39C51.4477 39 51 39.4477 51 40C51 40.5523 51.4477 41 52 41Z" fill="#023E8A"/>
<path d="M58.364 54.3637C58.7545 53.9731 58.7545 53.34 58.364 52.9494C57.9735 52.5589 57.3403 52.5589 56.9498 52.9494C56.5592 53.34 56.5592 53.9731 56.9498 54.3637C57.3403 54.7542 57.9735 54.7542 58.364 54.3637Z" fill="#023E8A"/>
<path d="M47.0496 43.0507C47.4401 42.6601 47.4401 42.027 47.0496 41.6365C46.659 41.2459 46.0259 41.2459 45.6354 41.6365C45.2448 42.027 45.2448 42.6601 45.6354 43.0507C46.0259 43.4412 46.659 43.4412 47.0496 43.0507Z" fill="#023E8A"/>
<path d="M58.3638 43.0505C58.7543 42.66 58.7543 42.0268 58.3638 41.6363C57.9733 41.2458 57.3401 41.2458 56.9496 41.6363C56.559 42.0268 56.559 42.66 56.9496 43.0505C57.3401 43.441 57.9733 43.441 58.3638 43.0505Z" fill="#023E8A"/>
<path d="M47.0498 54.3639C47.4403 53.9734 47.4403 53.3402 47.0498 52.9497C46.6592 52.5592 46.0261 52.5592 45.6356 52.9497C45.245 53.3402 45.245 53.9734 45.6356 54.3639C46.0261 54.7544 46.6592 54.7544 47.0498 54.3639Z" fill="#023E8A"/>
<path d="M25.711 52C24.9291 52.8804 23.9808 53.5976 22.9207 54.1102C21.8606 54.6228 20.7097 54.9208 19.534 54.987C19.513 54.987 19.495 55 19.475 55.003H19C16.7165 55.0092 14.4886 54.2981 12.631 52.97C12.5244 52.8896 12.4028 52.8315 12.2734 52.7989C12.1439 52.7663 12.0093 52.7599 11.8773 52.7802C11.7454 52.8004 11.6189 52.8469 11.5052 52.9168C11.3915 52.9868 11.293 53.0788 11.2154 53.1874C11.1378 53.296 11.0828 53.4191 11.0535 53.5493C11.0242 53.6795 11.0213 53.8143 11.0449 53.9457C11.0686 54.077 11.1183 54.2023 11.1911 54.3142C11.2639 54.4261 11.3584 54.5222 11.469 54.597C13.5171 56.0649 15.9511 56.8994 18.469 56.997L18.01 60.891C17.979 61.1543 18.0539 61.4192 18.2182 61.6274C18.3824 61.8355 18.6227 61.9699 18.886 62.001C18.924 62.0029 18.9621 62.0025 19 62C19.2448 61.9997 19.4809 61.9097 19.6637 61.7469C19.8466 61.5842 19.9634 61.3601 19.992 61.117L20.492 56.89C23.082 56.5451 25.4623 55.2822 27.2 53.331C27.3602 53.1313 27.4378 52.8778 27.4166 52.6227C27.3955 52.3675 27.2774 52.1302 27.0865 51.9596C26.8956 51.789 26.6466 51.6981 26.3907 51.7056C26.1348 51.7131 25.8915 51.8185 25.711 52Z" fill="#023E8A"/>
<path d="M12.5 34C13.3284 34 14 33.3284 14 32.5C14 31.6716 13.3284 31 12.5 31C11.6716 31 11 31.6716 11 32.5C11 33.3284 11.6716 34 12.5 34Z" fill="#023E8A"/>
<path d="M43 46C43.2652 46 43.5196 45.8946 43.7071 45.7071C43.8946 45.5196 44 45.2652 44 45C44 44.7348 43.8946 44.4804 43.7071 44.2929C43.5196 44.1054 43.2652 44 43 44H40.385L40.023 40.2C41.3182 37.6604 41.9956 34.8508 42 32C41.9957 29.9547 41.6406 27.9252 40.95 26H57C57.2652 26 57.5196 25.8946 57.7071 25.7071C57.8946 25.5196 58 25.2652 58 25C58 24.7348 57.8946 24.4804 57.7071 24.2929C57.5196 24.1054 57.2652 24 57 24H53V12.414L56 9.414V11C56 11.2652 56.1053 11.5196 56.2929 11.7071C56.4804 11.8946 56.7348 12 57 12C57.2652 12 57.5196 11.8946 57.7071 11.7071C57.8946 11.5196 58 11.2652 58 11V7C58 6.73478 57.8946 6.48043 57.7071 6.29289C57.5196 6.10536 57.2652 6 57 6H53C52.7348 6 52.4804 6.10536 52.2929 6.29289C52.1053 6.48043 52 6.73478 52 7C52 7.26522 52.1053 7.51957 52.2929 7.70711C52.4804 7.89464 52.7348 8 53 8H54.586L49.693 12.893L42.243 11.03C42.0585 10.9837 41.8646 10.9911 41.6841 11.0511C41.5036 11.1112 41.344 11.2214 41.224 11.369L35.611 18.269C35.411 18.101 35.206 17.944 35 17.785V8C35 7.73478 34.8946 7.48043 34.7071 7.29289C34.5196 7.10536 34.2652 7 34 7C33.7348 7 33.4804 7.10536 33.2929 7.29289C33.1053 7.48043 33 7.73478 33 8V16.436C32.3553 16.0549 31.6873 15.7145 31 15.417V4H38C38.2652 4 38.5196 3.89464 38.7071 3.70711C38.8946 3.51957 39 3.26522 39 3C39 2.73478 38.8946 2.48043 38.7071 2.29289C38.5196 2.10536 38.2652 2 38 2H30C29.7348 2 29.4804 2.10536 29.2929 2.29289C29.1053 2.48043 29 2.73478 29 3V14.721C27.3757 14.2457 25.6923 14.003 24 14C23.662 14 23.333 14.032 23 14.051V12C23 11.2044 23.3161 10.4413 23.8787 9.87868C24.4413 9.31607 25.2043 9 26 9C26.2652 9 26.5196 8.89464 26.7071 8.70711C26.8946 8.51957 27 8.26522 27 8C27 7.73478 26.8946 7.48043 26.7071 7.29289C26.5196 7.10536 26.2652 7 26 7C24.6744 7.00159 23.4035 7.52888 22.4662 8.46622C21.5289 9.40356 21.0016 10.6744 21 12V14.271C18.2052 14.7482 15.5623 15.8779 13.2861 17.5683C11.0099 19.2588 9.16457 21.4624 7.89999 24H4.99999V17C4.99999 16.7348 4.89464 16.4804 4.7071 16.2929C4.51956 16.1054 4.26521 16 3.99999 16C3.73478 16 3.48042 16.1054 3.29289 16.2929C3.10535 16.4804 2.99999 16.7348 2.99999 17V25C2.99999 25.2652 3.10535 25.5196 3.29289 25.7071C3.48042 25.8946 3.73478 26 3.99999 26H7.04999C6.35939 27.9252 6.00424 29.9547 5.99999 32V33.734L2.13199 40.5C2.00995 40.712 1.96982 40.9613 2.01921 41.2009C2.06859 41.4404 2.20407 41.6536 2.39999 41.8L6.00999 44.507C6.10221 47.0333 6.93699 49.4765 8.40999 51.531C8.48476 51.6416 8.58091 51.7361 8.69277 51.8089C8.80463 51.8817 8.92994 51.9314 9.0613 51.9551C9.19267 51.9787 9.32745 51.9758 9.45768 51.9465C9.58791 51.9172 9.71096 51.8622 9.81958 51.7846C9.9282 51.707 10.0202 51.6085 10.0901 51.4948C10.1601 51.3811 10.2065 51.2546 10.2268 51.1227C10.2471 50.9907 10.2407 50.8561 10.2081 50.7266C10.1755 50.5972 10.1173 50.4756 10.037 50.369C8.70687 48.5122 7.99427 46.2841 7.99999 44C7.99999 43.8448 7.96385 43.6916 7.89442 43.5528C7.82499 43.4139 7.72419 43.2931 7.59999 43.2L4.30599 40.729L7.86799 34.5C7.95507 34.3478 8.00059 34.1754 7.99999 34V32C8.00078 29.9426 8.40084 27.905 9.17799 26H13.978C13.9771 27.6263 14.5414 29.2024 15.5742 30.4587C16.607 31.7149 18.0442 32.5733 19.64 32.887C19.869 32.932 20.095 32.963 20.322 32.987C21.77 33.2025 23.0983 33.914 24.08 35C24.3648 35.2784 24.6726 35.5322 25 35.759V41C25.0016 42.3256 25.5289 43.5964 26.4662 44.5338C27.4035 45.4711 28.6744 45.9984 30 46H38.567L40 61.095C40.0237 61.3434 40.1394 61.574 40.3245 61.7415C40.5095 61.9089 40.7504 62.0011 41 62C41.0333 62.0021 41.0667 62.0021 41.1 62C41.3638 61.9747 41.6068 61.8457 41.7756 61.6413C41.9443 61.4369 42.0251 61.1739 42 60.91L40.576 46H43ZM37.063 19.653L39 17.272V22.072C38.4246 21.2118 37.7766 20.4025 37.063 19.653V19.653ZM45 24V13.78L47 14.28V24H45ZM49.757 14.97C49.9245 15.0128 50.1003 15.011 50.267 14.9648C50.4336 14.9187 50.5853 14.8298 50.707 14.707L51 14.414V24H49V14.78L49.757 14.97ZM42.374 13.124L43 13.28V24H41V14.814L42.374 13.124ZM21 16.292V18.992C20.947 18.999 20.894 19 20.84 19.007C19.3882 19.1356 18.0025 19.6728 16.8435 20.5565C15.6844 21.4401 14.7994 22.6341 14.291 24H10.165C11.3143 22.0147 12.8763 20.2992 14.7455 18.9695C16.6147 17.6397 18.7476 16.7267 21 16.292ZM30 44C29.2043 44 28.4413 43.6839 27.8787 43.1213C27.3161 42.5587 27 41.7956 27 41V36.734C27.6458 36.9247 28.3157 37.0213 28.989 37.021H29.179C30.7473 36.9834 32.2517 36.3922 33.426 35.352C33.534 35.2685 33.6238 35.1637 33.6898 35.0441C33.7558 34.9245 33.7966 34.7927 33.8097 34.6568C33.8228 34.5209 33.8079 34.3837 33.7659 34.2537C33.724 34.1238 33.6559 34.0038 33.5657 33.9011C33.4756 33.7985 33.3655 33.7154 33.242 33.657C33.1186 33.5986 32.9845 33.5661 32.848 33.5615C32.7115 33.5569 32.5755 33.5803 32.4484 33.6302C32.3213 33.6802 32.2058 33.7557 32.109 33.852C31.2846 34.5827 30.2283 34.9982 29.127 35.025C28.3948 35.0484 27.667 34.903 27 34.6V30C27 29.7348 26.8946 29.4804 26.7071 29.2929C26.5196 29.1054 26.2652 29 26 29C25.7348 29 25.4804 29.1054 25.2929 29.2929C25.1053 29.4804 25 29.7348 25 30V33.133C23.774 31.9562 22.2011 31.206 20.515 30.994C20.353 30.978 20.189 30.955 20.022 30.923C18.8893 30.6856 17.872 30.0678 17.1391 29.1722C16.4061 28.2766 16.0017 27.1572 15.993 26H18C18.2652 26 18.5196 25.8946 18.7071 25.7071C18.8946 25.5196 19 25.2652 19 25C19 24.7348 18.8946 24.4804 18.7071 24.2929C18.5196 24.1054 18.2652 24 18 24H16.451C16.9259 23.1839 17.5841 22.4895 18.3736 21.9716C19.1631 21.4537 20.0623 21.1266 21 21.016V24C21 24.2652 21.1053 24.5196 21.2929 24.7071C21.4804 24.8946 21.7348 25 22 25C22.2652 25 22.5196 24.8946 22.7071 24.7071C22.8946 24.5196 23 24.2652 23 24V20.864C25.7097 20.7982 28.3672 21.616 30.571 23.194C31.4824 23.8593 32.2496 24.7024 32.8261 25.6725C33.4025 26.6425 33.7764 27.7194 33.925 28.838C34.0144 29.5338 33.9782 30.24 33.818 30.923C33.7885 31.051 33.7845 31.1835 33.8063 31.313C33.828 31.4425 33.875 31.5665 33.9447 31.6778C34.0143 31.7892 34.1052 31.8857 34.2122 31.9619C34.3191 32.0381 34.44 32.0925 34.568 32.122C34.696 32.1515 34.8285 32.1555 34.958 32.1337C35.0875 32.112 35.2115 32.065 35.3228 31.9953C35.4342 31.9257 35.5307 31.8348 35.6069 31.7278C35.6831 31.6209 35.7375 31.5 35.767 31.372C35.981 30.4566 36.0291 29.5103 35.909 28.578C35.7281 27.1962 35.2689 25.8654 34.5592 24.6661C33.8496 23.4667 32.9041 22.4237 31.78 21.6C29.2344 19.7461 26.1481 18.7844 23 18.864V16.051C23.332 16.03 23.662 16 24 16C26.763 16.0001 29.4789 16.7156 31.8832 18.077C34.2875 19.4384 36.2983 21.3992 37.7198 23.7685C39.1413 26.1378 39.925 28.8348 39.9946 31.5969C40.0642 34.359 39.4173 37.0921 38.117 39.53C38.0249 39.7029 37.9856 39.899 38.004 40.094L38.376 44H30Z" fill="#023E8A"/>
<path d="M9 16C10.3845 16 11.7378 15.5895 12.889 14.8203C14.0401 14.0511 14.9373 12.9579 15.4672 11.6788C15.997 10.3997 16.1356 8.99224 15.8655 7.63437C15.5954 6.2765 14.9287 5.02922 13.9497 4.05026C12.9708 3.07129 11.7235 2.4046 10.3656 2.13451C9.00777 1.86441 7.6003 2.00303 6.32122 2.53285C5.04213 3.06266 3.94888 3.95987 3.17971 5.11101C2.41054 6.26216 2 7.61553 2 9C2.00212 10.8559 2.7403 12.6351 4.05259 13.9474C5.36489 15.2597 7.14413 15.9979 9 16V16ZM13.9 8H10V4.1C10.9601 4.29778 11.8411 4.77259 12.5343 5.46572C13.2274 6.15886 13.7022 7.03992 13.9 8V8ZM8 4.1V9C8 9.26522 8.10536 9.51957 8.29289 9.70711C8.48043 9.89465 8.73478 10 9 10H13.9C13.7191 10.8849 13.3019 11.7043 12.6927 12.3711C12.0835 13.038 11.3051 13.5273 10.4401 13.7872C9.57509 14.0471 8.65584 14.0679 7.77999 13.8473C6.90414 13.6267 6.10441 13.1729 5.46575 12.5343C4.82709 11.8956 4.37335 11.0959 4.15273 10.22C3.93212 9.34416 3.95286 8.42491 4.21277 7.55991C4.47268 6.69491 4.96204 5.91646 5.62887 5.30727C6.2957 4.69807 7.11509 4.28088 8 4.1V4.1Z" fill="#023E8A"/>
</svg>
