<?xml version="1.0" encoding="UTF-8" standalone="no"?> <svg xmlns="http://www.w3.org/2000/svg" viewBox="0 0 64 64"><g id="Fill_Outline" data-name="Fill Outline"><polygon points="53 18 53 61 11 61 11 3 38 3 53 18" style="fill:#d4eded"/><path d="M22.654,15.346,26.9,11.1A13.952,13.952,0,0,0,17,7v6A7.971,7.971,0,0,1,22.654,15.346Z" style="fill:red"/><path d="M22.654,15.346A7.971,7.971,0,0,1,25,21h6a13.952,13.952,0,0,0-4.1-9.9Z" style="fill:#fbb03b"/><path d="M17,29a8,8,0,0,1,0-16V7A14,14,0,1,0,31,21H25A8.009,8.009,0,0,1,17,29Z" style="fill:#097e46"/><rect x="33" y="47" width="4" height="10" style="fill:red"/><rect x="41" y="43" width="4" height="14" style="fill:#fbb03b"/><rect x="49" y="39" width="4" height="18" style="fill:#097e46"/><rect x="57" y="35" width="4" height="22" style="fill:#0378a3"/><path d="M47.536,27.464a5,5,0,1,0,0,7.072L44,31Z" style="fill:#0378a3"/><path d="M47.536,27.464,44,31l3.536,3.536a5,5,0,0,0,0-7.072Z" style="fill:red"/><polygon points="38 3 38 18 53 18 38 3" style="fill:#b3b3b3"/></g><g id="Outline"><path d="M10,7.743a14.984,14.984,0,0,0,0,26.514V61a1,1,0,0,0,1,1H53a1,1,0,0,0,1-1V18c0-.021-.011-.04-.012-.062a1,1,0,0,0-.052-.259c-.011-.032-.019-.062-.033-.093a1,1,0,0,0-.2-.293l-15-15a.97.97,0,0,0-.294-.2.874.874,0,0,0-.09-.033.989.989,0,0,0-.264-.052C38.039,2.01,38.02,2,38,2H11a1,1,0,0,0-1,1ZM4,21A13.018,13.018,0,0,1,16,8.038v4.018A9,9,0,1,0,25.944,22h4.018A13,13,0,0,1,4,21Zm20.03-5.615,2.843-2.844A12.878,12.878,0,0,1,29.962,20H25.945A8.9,8.9,0,0,0,24.03,15.385ZM22.615,13.97A8.9,8.9,0,0,0,18,12.055V8.038a12.878,12.878,0,0,1,7.459,3.089Zm-.668,2.083A7,7,0,1,1,17,14,6.954,6.954,0,0,1,21.947,16.053ZM52,56H50V40h2ZM50.586,17H39V5.414ZM37,4V7H34V9h3v2H34v2h3v2H34v2h3v1a1,1,0,0,0,1,1H52V38H49a1,1,0,0,0-1,1V57a1,1,0,0,0,1,1h3v2H12V35.125a15,15,0,1,0,0-28.25V4Z"/><path d="M37,46H33a1,1,0,0,0-1,1V57a1,1,0,0,0,1,1h4a1,1,0,0,0,1-1V47A1,1,0,0,0,37,46ZM36,56H34V48h2Z"/><path d="M45,42H41a1,1,0,0,0-1,1V57a1,1,0,0,0,1,1h4a1,1,0,0,0,1-1V43A1,1,0,0,0,45,42ZM44,56H42V44h2Z"/><path d="M61,34H57a1,1,0,0,0-1,1V57a1,1,0,0,0,1,1h4a1,1,0,0,0,1-1V35A1,1,0,0,0,61,34ZM60,56H58V36h2Z"/><rect x="14" y="43" width="2" height="2"/><rect x="18" y="43" width="9" height="2"/><rect x="14" y="47" width="13" height="2"/><rect x="14" y="51" width="8" height="2"/><rect x="34" y="21" width="16" height="2"/><path d="M44,25a6,6,0,1,0,4.242,1.758A6.006,6.006,0,0,0,44,25Zm3.447,3.968a4.01,4.01,0,0,1,0,4.064L45.414,31ZM44,35a4,4,0,1,1,2.032-7.447l-2.739,2.74a1,1,0,0,0,0,1.414l2.739,2.74A3.965,3.965,0,0,1,44,35Z"/><rect x="26" y="35" width="11" height="2"/><rect x="26" y="39" width="8" height="2"/><rect x="14" y="55" width="8" height="2"/></g></svg>