<?xml version="1.0" encoding="UTF-8" standalone="no"?> <svg id="Layer_1" data-name="Layer 1" xmlns="http://www.w3.org/2000/svg" viewBox="0 0 128 128"><defs><style>.cls-1{fill:#1d75b8;}.cls-2{fill:#2d3e50;}</style></defs><title>b</title><path class="cls-1" d="M64.36085,36.24864a2.618,2.618,0,0,0,2.61508-2.61488V28.31229a2.61517,2.61517,0,1,0-5.23035,0v5.32146A2.618,2.618,0,0,0,64.36085,36.24864Z"/><path class="cls-1" d="M97.31344,58.90945H91.99224a2.61508,2.61508,0,1,0,0,5.23015h5.32121a2.61508,2.61508,0,1,0,0-5.23015Z"/><path class="cls-1" d="M64.10121,86.54084a2.61824,2.61824,0,0,0-2.615,2.61527v5.321a2.615,2.615,0,1,0,5.23009,0v-5.321A2.61826,2.61826,0,0,0,64.10121,86.54084Z"/><path class="cls-1" d="M36.46989,58.64987H31.14842a2.615,2.615,0,1,0,0,5.23009h5.32146a2.615,2.615,0,0,0,0-5.23009Z"/><path class="cls-2" d="M120.22427,32.36559A71.85159,71.85159,0,0,0,98.603,9.02523a78.42251,78.42251,0,0,0-10.43475-6.1546,2.66176,2.66176,0,0,0-3.59853,1.31813L82.10888,9.75447A52.53043,52.53043,0,0,0,64.10181,6.39663V6.394c-.03394.00006-.06786.00121-.1018.00133-.03394-.00012-.06788-.00127-.10182-.00133v.00265A52.53043,52.53043,0,0,0,45.89112,9.75447L43.43029,4.18876a2.66176,2.66176,0,0,0-3.59853-1.31813A78.42251,78.42251,0,0,0,29.397,9.02523,71.85159,71.85159,0,0,0,7.77573,32.36559a2.66136,2.66136,0,0,0,1.09008,3.68123l5.33015,2.764A59.60285,59.60285,0,0,0,10.72772,49.604,57.57912,57.57912,0,0,0,9.3244,61.52976H9.25172v63.869H26.2771L31.289,113.86388H96.711l5.01189,11.53487h17.02538v-63.869h-.07268A57.57912,57.57912,0,0,0,117.27228,49.604a59.60285,59.60285,0,0,0-3.46823-10.7931l5.33015-2.764A2.66136,2.66136,0,0,0,120.22427,32.36559ZM64,102.75994c-23.04326-.36762-41.02092-18.43721-41.15355-41.23017-.00249-.32577,0-.65155.005-.97732a41.15328,41.15328,0,0,1,82.297,0c.005.32577.00751.65155.005.97732C105.02091,84.32273,87.04326,102.39232,64,102.75994Z"/><path class="cls-1" d="M83.47964,41.26112h0a3.759,3.759,0,0,0-5.31431.13065L67.54571,52.54654a9.60568,9.60568,0,0,0-3.30525-.59883,9.40628,9.40628,0,0,0-9.45841,9.25469c-.00115.07438-.00171.14878-.00115.22317a9.45023,9.45023,0,0,0,18.89965.08412c.00057-.02805.00115-.05609.00057-.08412a9.34578,9.34578,0,0,0-.7137-3.671L83.61028,46.57551A3.759,3.759,0,0,0,83.47964,41.26112Z"/></svg>